<?xml version="1.0" standalone="no"?>
<!DOCTYPE svg PUBLIC "-//W3C//DTD SVG 20010904//EN"
 "http://www.w3.org/TR/2001/REC-SVG-20010904/DTD/svg10.dtd">
<svg version="1.0" xmlns="http://www.w3.org/2000/svg"
 width="512.000000pt" height="512.000000pt" viewBox="0 0 512.000000 512.000000"
 preserveAspectRatio="xMidYMid meet">

<g transform="translate(0.000000,512.000000) scale(0.100000,-0.100000)"
fill="#000000" stroke="none">
<path d="M870 2560 l0 -1690 850 0 850 0 0 895 0 895 110 0 110 0 0 -895 0
-895 337 0 337 0 -45 28 c-44 28 -86 80 -111 137 -10 23 -14 140 -18 475 l-5
445 -122 3 -123 3 0 89 0 90 125 0 125 0 0 175 0 175 100 0 100 0 0 -175 0
-175 195 0 195 0 0 -90 0 -90 -192 -2 -193 -3 0 -400 0 -400 25 -45 c38 -68
94 -95 195 -95 44 0 101 4 128 8 l47 8 0 -80 0 -81 185 0 185 0 0 1690 0 1690
-1695 0 -1695 0 0 -1690z m1230 1230 c0 -287 -2 -330 -15 -330 -13 0 -15 43
-15 330 0 287 2 330 15 330 13 0 15 -43 15 -330z m-650 -25 l0 -285 -26 0
c-17 0 -28 6 -31 20 -5 19 -6 19 -35 -5 -61 -52 -169 -26 -214 51 -24 40 -26
53 -23 128 4 93 18 122 79 164 39 26 107 29 150 7 l30 -16 0 111 0 110 35 0
35 0 0 -285z m364 72 c61 -34 88 -94 84 -183 -4 -83 -30 -130 -91 -165 -31
-17 -51 -20 -96 -17 -106 8 -161 74 -161 193 0 94 39 161 110 188 38 14 116 6
154 -16z"/>
<path d="M1250 3799 c-60 -22 -87 -152 -48 -225 30 -55 96 -67 156 -28 21 14
22 21 22 122 l0 108 -35 17 c-39 19 -58 20 -95 6z"/>
<path d="M1690 3803 c-31 -11 -61 -48 -71 -87 -33 -121 56 -230 150 -182 41
22 61 64 61 131 0 31 -7 69 -15 85 -23 45 -80 69 -125 53z"/>
</g>
</svg>
